<?xml version="1.0" standalone="no"?>
<!DOCTYPE svg PUBLIC "-//W3C//DTD SVG 20010904//EN"
 "http://www.w3.org/TR/2001/REC-SVG-20010904/DTD/svg10.dtd">
<svg version="1.0" xmlns="http://www.w3.org/2000/svg"
 width="603.000000pt" height="52.000000pt" viewBox="0 0 603.000000 52.000000"
 preserveAspectRatio="xMidYMid meet">

<g transform="translate(0.000000,52.000000) scale(0.100000,-0.100000)"
fill="#000000" stroke="none">
<path d="M2635 453 c-84 -21 -135 -85 -135 -167 0 -56 18 -94 60 -130 85 -71
216 -45 257 52 8 19 13 35 11 37 -2 1 -18 5 -35 8 -26 5 -33 3 -33 -9 0 -30
-47 -64 -87 -64 -48 0 -81 22 -100 67 -27 67 23 143 94 143 45 0 69 -14 88
-50 14 -27 17 -28 45 -19 36 13 36 17 7 59 -36 55 -115 88 -172 73z"/>
<path d="M5133 449 c-75 -22 -133 -118 -118 -192 26 -122 163 -181 265 -113
119 79 92 267 -45 305 -46 13 -58 13 -102 0z m113 -77 c82 -66 42 -192 -61
-192 -23 0 -49 8 -61 18 -82 66 -42 192 61 192 23 0 49 -8 61 -18z"/>
<path d="M5484 449 c-50 -14 -76 -50 -72 -100 2 -36 8 -47 35 -65 18 -12 54
-25 80 -29 76 -11 95 -40 48 -71 -29 -19 -68 -13 -93 16 -18 21 -67 27 -78 9
-10 -16 14 -53 44 -71 95 -54 212 -10 212 82 0 48 -39 85 -102 95 -56 9 -78
22 -78 43 0 46 57 56 96 16 21 -20 32 -24 55 -19 16 4 29 10 29 15 0 21 -55
70 -88 80 -42 11 -46 11 -88 -1z"/>
<path d="M50 443 c0 -5 30 -79 66 -165 67 -157 67 -158 99 -158 31 0 32 2 103
161 73 166 74 175 21 167 -19 -2 -32 -23 -69 -110 -26 -59 -49 -110 -52 -113
-3 -3 -25 41 -49 97 -23 57 -47 109 -52 116 -10 13 -67 17 -67 5z"/>
<path d="M430 285 l0 -166 123 3 122 3 3 27 3 27 -93 3 -93 3 0 35 0 35 80 1
c78 1 80 2 83 27 3 26 3 26 -80 29 l-83 3 0 35 0 35 92 3 92 3 -3 27 -3 27
-122 3 -121 3 0 -166z"/>
<path d="M740 445 c0 -3 -1 -76 -1 -162 l0 -158 30 -3 31 -3 0 100 c0 56 3
101 8 100 4 0 45 -45 91 -100 70 -83 88 -99 112 -99 l29 0 -2 163 -3 162 -30
0 -30 0 -5 -103 -5 -102 -88 105 c-68 80 -94 105 -113 105 -13 0 -24 -2 -24
-5z"/>
<path d="M1087 444 c-4 -4 -7 -18 -7 -31 0 -21 4 -23 55 -23 l55 0 0 -135 0
-135 35 0 35 0 0 135 0 135 56 0 c54 0 55 0 52 28 l-3 27 -136 3 c-74 1 -138
-1 -142 -4z"/>
<path d="M1410 340 c0 -126 12 -166 60 -200 40 -28 116 -32 154 -6 55 35 66
70 66 199 l0 117 -30 0 -30 0 0 -94 c0 -101 -12 -151 -40 -166 -31 -16 -65
-11 -88 13 -19 20 -22 36 -24 132 l-3 110 -32 3 -33 3 0 -111z"/>
<path d="M1760 285 l0 -165 30 0 30 0 0 60 c0 53 2 60 19 60 12 0 42 -25 73
-60 47 -53 57 -60 90 -60 21 0 38 3 38 7 0 4 -23 31 -52 60 l-51 52 25 10 c59
22 86 100 52 150 -26 36 -74 51 -169 51 l-85 0 0 -165z m181 95 c21 -12 25
-50 7 -68 -7 -7 -38 -12 -70 -12 l-58 0 0 38 c0 21 3 42 7 45 10 11 92 8 114
-3z"/>
<path d="M2090 445 c0 -3 -1 -76 -1 -162 l0 -158 120 -3 121 -3 0 31 0 30 -91
0 -90 0 3 38 3 37 80 1 80 2 0 27 0 27 -80 2 -80 1 0 35 0 35 88 3 87 3 0 29
0 30 -120 0 c-66 0 -120 -2 -120 -5z"/>
<path d="M2914 294 c-38 -86 -70 -161 -72 -165 -2 -5 13 -9 33 -9 32 0 38 4
51 35 l14 35 70 0 70 0 17 -35 c14 -30 22 -35 50 -35 18 0 33 3 32 8 0 4 -31
77 -68 162 -64 147 -69 155 -98 158 -30 3 -31 2 -99 -154z m127 -1 l18 -43
-44 0 c-25 0 -45 4 -45 9 0 5 10 31 21 58 14 31 23 43 27 33 3 -8 13 -34 23
-57z"/>
<path d="M3220 284 l0 -165 33 3 c31 3 32 4 32 53 l0 50 70 6 c85 7 102 13
120 50 21 40 19 92 -5 122 -27 34 -76 47 -172 47 l-78 0 0 -166z m174 96 c20
-7 26 -17 26 -38 0 -41 -17 -52 -80 -52 l-56 0 2 48 c1 26 3 48 3 50 3 6 83 1
105 -8z"/>
<path d="M3547 443 c-4 -3 -7 -78 -7 -165 l0 -158 35 0 35 0 0 165 0 165 -28
0 c-16 0 -32 -3 -35 -7z"/>
<path d="M3657 444 c-4 -4 -7 -18 -7 -31 0 -21 4 -23 55 -23 l55 0 0 -135 0
-135 35 0 35 0 0 135 0 135 56 0 c54 0 55 0 52 28 l-3 27 -136 3 c-74 1 -138
-1 -142 -4z"/>
<path d="M4051 428 c-5 -13 -36 -86 -70 -162 -34 -76 -61 -140 -61 -142 0 -2
16 -4 35 -4 30 0 37 4 49 35 l15 35 71 0 70 0 17 -35 c14 -30 22 -35 50 -35
18 0 33 2 33 4 0 2 -31 75 -69 162 -66 154 -69 159 -100 162 -25 3 -33 -1 -40
-20z m70 -135 l18 -43 -44 0 c-25 0 -45 4 -45 9 0 5 10 31 21 58 14 31 23 43
27 33 3 -8 13 -34 23 -57z"/>
<path d="M4300 285 l0 -165 115 0 115 0 0 30 0 29 -82 3 -83 3 -3 133 -3 132
-29 0 -30 0 0 -165z"/>
<path d="M4707 443 c-4 -3 -7 -78 -7 -165 l0 -158 35 0 35 0 0 55 0 55 68 0
c78 0 107 15 128 66 24 58 -1 114 -63 140 -33 14 -184 20 -196 7z m181 -69
c24 -17 29 -53 10 -72 -7 -7 -38 -12 -70 -12 l-58 0 0 50 0 50 48 0 c27 0 57
-7 70 -16z"/>
<path d="M5690 421 c0 -29 2 -30 51 -33 l51 -3 1 -130 2 -130 32 -3 32 -3 3
133 3 133 53 3 c50 3 52 4 52 33 l0 29 -140 0 -140 0 0 -29z"/>
</g>
</svg>
